<svg xmlns="http://www.w3.org/2000/svg" width="1920" height="1080" viewBox="0 0 1920 1080">
  <defs>
    <linearGradient id="g" x1="0" y1="0" x2="1" y2="1">
      <stop offset="0" stop-color="#FFF7ED"/>
      <stop offset="0.45" stop-color="#FED7AA"/>
      <stop offset="1" stop-color="#111827"/>
    </linearGradient>
    <radialGradient id="r" cx="50%" cy="35%" r="70%">
      <stop offset="0" stop-color="#FFFFFF" stop-opacity="0.65"/>
      <stop offset="1" stop-color="#000000" stop-opacity="0"/>
    </radialGradient>
  </defs>
  <rect width="1920" height="1080" fill="url(#g)"/>
  <rect width="1920" height="1080" fill="url(#r)"/>
  <g opacity="0.20" fill="#FFFFFF">
    <circle cx="240" cy="220" r="3"/>
    <circle cx="320" cy="260" r="2"/>
    <circle cx="420" cy="210" r="2"/>
    <circle cx="1580" cy="280" r="2"/>
    <circle cx="1680" cy="220" r="3"/>
    <circle cx="1760" cy="260" r="2"/>
    <circle cx="1440" cy="760" r="2"/>
    <circle cx="1520" cy="820" r="3"/>
    <circle cx="360" cy="820" r="3"/>
    <circle cx="260" cy="760" r="2"/>
  </g>
  <g opacity="0.18" stroke="#FFFFFF" stroke-width="2" fill="none">
    <path d="M260 740 C 520 640, 720 520, 960 540 C 1200 560, 1420 700, 1660 640" />
    <path d="M220 320 C 520 260, 820 220, 1120 260 C 1420 300, 1660 380, 1780 460" />
  </g>
  <text x="50%" y="56%" text-anchor="middle" font-family="ui-serif, Georgia, serif" font-size="44" fill="#FFFFFF" opacity="0.78">
    Remplace-moi par une vraie photo (slide 1)
  </text>
</svg>
